<?xml version="1.0" encoding="utf-8"?>
<!-- Generator: Adobe Illustrator 13.0.0, SVG Export Plug-In . SVG Version: 6.00 Build 14948)  -->
<!DOCTYPE svg PUBLIC "-//W3C//DTD SVG 1.1//EN" "http://www.w3.org/Graphics/SVG/1.1/DTD/svg11.dtd">
<svg version="1.1" xmlns="http://www.w3.org/2000/svg" xmlns:xlink="http://www.w3.org/1999/xlink" x="0px" y="0px"
	 width="623.349px" height="610.47px" viewBox="0 0 623.349 610.47" enable-background="new 0 0 623.349 610.47"
	 xml:space="preserve">
<g id="Layer_5">
	<rect x="-4.5" y="-1.5" fill="#29ABE2" stroke="#29ABE2" width="809.959" height="611.969"/>
</g>
<g id="Layer_4" opacity="0.9">
	<polygon fill="#D1C0AB" stroke="#9C8F7F" points="353.889,-89.105 353.889,-70.105 354.889,-60.105 348.889,-42.105 
		350.889,-27.105 357.889,-31.105 366.889,-31.105 375.889,-30.105 384.889,-30.105 392.889,-35.105 403.889,-35.105 
		410.889,-38.105 417.889,-38.105 425.889,-31.105 434.889,-25.105 431.889,-16.105 435.889,-9.105 435.889,-1.105 443.889,6.895 
		460.889,11.895 468.889,-0.105 478.889,-4.105 489.889,-9.105 501.889,-16.105 513.889,-19.105 521.889,-19.105 536.889,-18.105 
		548.889,-18.105 556.889,-18.105 565.889,-21.105 572.889,-20.105 580.889,-20.105 586.889,-29.105 594.889,-45.105 
		606.889,-50.105 626.889,-52.105 626.889,-57.105 625.889,-67.105 632.889,-77.105 645.889,-91.105 652.889,-92.105 
		658.889,-100.105 647.889,-113.105 	"/>
	<polygon fill="#D1C0AB" stroke="#9C8F7F" points="790.889,-26.105 772.889,-25.105 765.889,-19.105 743.889,-16.105 
		718.889,-13.105 696.889,-12.105 675.889,-5.105 662.889,3.895 649.889,16.895 649.889,24.895 635.889,19.895 628.889,19.895 
		610.889,27.895 602.889,33.895 597.889,41.895 586.889,46.895 577.889,50.895 570.889,54.895 593.889,156.895 519.889,170.895 
		483.889,237.895 455.889,256.895 399.889,263.895 344.889,291.895 334.889,324.895 336.889,407.895 221.889,404.895 
		214.889,505.895 182.889,514.895 174.889,533.895 172.889,566.895 173.889,591.895 34.889,584.895 26.862,610.636 27.889,618.895 
		31.889,628.895 41.889,635.895 48.889,639.895 54.889,651.895 55.889,658.895 55.889,668.895 50.889,681.895 46.889,690.895 
		50.889,699.895 58.889,709.895 780.889,704.895 	"/>
	<polyline fill="#D1C0AB" stroke="#9C8F7F" points="338.889,366.895 688.889,626.895 688.889,640.895 696.889,648.895 
		712.889,658.895 724.889,662.895 740.889,672.895 752.889,674.895 764.889,676.895 766.889,706.895 	"/>
	<polyline fill="#D1C0AB" stroke="#9C8F7F" points="428.889,710.895 412.889,466.895 470.889,464.895 	"/>
	<rect x="-1.5" y="-1.5" fill="none" width="782.96" height="605.969"/>
</g>
<g id="Layer_1">
	<g>
		<g id="XMLID_1_">
			<g>
				<path fill="#E6B781" d="M607.858,148.721c0.482,1.271,0.756,2.597,0.87,3.955c-5.689,2.941-1.673,9.461-2.188,14.251
					c-8.177,3.625-15.471-5.007-23.748-0.81c-12.064-0.707-23.649,2.519-35.25,3.675c1.074,3.051,1.57,6.243,1.938,9.457
					c-0.135,0.862-0.745,1.974-1.682,2.74c-3.793,1.587-8.187,0.265-11.935,2.142c-1.729-4.47-0.479-9.593-0.16-14.129
					c-4.198-2.146-9.283-0.126-13.798-0.916c-0.381-4.544-5.069-2.751-7.054-5.196c2.85-6.271-4.671-8.489-6.495-13.248
					l-0.499-0.501c5.725-5.442,5.631-13.562,11.651-17.569c6.464-4.315,15.567-0.296,23.373-3.984
					c0.324-1.476,0.678-2.362,0.702-3.243l-1.018-0.982c-2.156-4.873-8.974-6.362-9.179-12.319c0.091-2.782,2.56-4.556,2.83-7.321
					l-0.009-0.5c0.208-0.134,0.426-0.268,0.634-0.401c0.677-4.143-3.842-6.813-4.571-10.751c6.113-4.389,1.97-11.307,0.608-17.033
					c3.788-1.847,4.371-5.658,7.507-8.174c0.441-1.058-0.365-2.534-1.518-3.233c-7.586-5.347-11.714,4.968-18.553,2.849
					c-0.728-2.677-0.826-5.416-1.055-8.152c-0.576-0.34-1.362-0.706-2.041-1.194l-2.826,0.22c-2.678-3.763-0.604-9.291-2.415-13.79
					c3.642-7.286,10.396,0.786,15.702,0.512c3.613-2.634,9.747-4.723,10.017-10.419c0.68-0.592,1.203-1.512,1.779-1.752
					c2.427,2.058-0.008,6.332,1.629,8.973c5.164,8.08,14.603,3.402,22.107,4.74c5.001,5.672,10.006,10.975,17.191,14.068
					c-0.184,0.894-0.613,2.071-1.479,3.417c3.933,10.833,7.431,22.552,6.021,34.989c-3.81,2.868-0.513,3.79,0.501,6.812
					c1.814,5.369,1.559,12.915,4.104,17.13l1.018,0.982C589.878,135.917,598.805,143.01,607.858,148.721z"/>
				<path fill="#E6B781" d="M441.413,144.796c0.09,0.038,0.19,0.077,0.281,0.115c4.138-0.183,5.869,3.257,6.85,6.69
					c3.474,0.188,5.351,2.236,8.05,3.848c1.517,2.633,0.848,6.106,0.659,8.99c-5.04,0.599-10.16,5.721-8.271,11.378l-0.025,0.241
					c-0.08,0.001-0.16-0.007-0.24-0.026c-1.243,6.633-8.52,10.873-15.018,13.268l-0.833-0.155c-2.634,3.217-6.433,2.714-9.339,4.096
					c-2.42,1.163-3.902,5.57-7.747,3.648c-1.779,1.162-0.257,3.545-1.611,4.989c-4.469,2.929-7.951-2.79-12.306-3.013l-0.5,0.009
					c-0.692-1.268-0.157-2.648-0.102-3.479c0.238-3.484-3.017-3.197-5.275-4.197c-0.714-1.897,0.162-4.414,2.119-5.138
					c1.964-0.385,4.032,0.079,5.974-0.386c1.56-3.458,2.011-9.017-1.425-11.557c-1.353-4.697,0.835-9.356-0.482-14.264l0.767-0.224
					c3.251,0.033,3.419-4.021,4.18-6.275c3.808-4.118,9.746-3.113,14.392-2.845c4.569-5.182,14.956,1.906,19.185-5.561
					c0.158-0.083,0.327-0.166,0.485-0.249C441.261,144.729,441.332,144.757,441.413,144.796z"/>
				<path fill="#E6B781" d="M535.863,184.13c0.126,0.348,0.282,0.685,0.448,1.022c-3.479,2.872-9.12,2.912-13.326,4.827
					c-2.289,2.351-0.862,5.546-0.864,8.257c0.054,0.199,0.107,0.398,0.17,0.587c0.02,0.49,0.027,0.97-0.086,1.362
					c-0.641,0.521-1.817,0.702-3.015,0.863c-1.135,2.571-0.969,5.728-0.82,8.456c2.368,0.468,5.088-0.13,6.465,2.466
					c0.228,0.436,0.445,0.892,0.516,1.491c0.316,0.354,0.613,0.709,0.781,1.187c-0.019,0.62-0.048,1.221-0.158,1.803
					c-3.711,2.226-4.119,6.304-6.859,9.123c-3.222,3.317-5.49,3.408-9.463,5.588c-8.448,4.66-20.026,13.327-25.39,17.752
					c-3.457,4.152-9.599,2.96-12.701,7.396l-0.582-0.12c0.028-0.121,0.056-0.241,0.073-0.372
					c-2.411-7.968-4.412-16.494-3.364-25.114c-0.589-3.32-3.963-5.19-4.4-8.423c-2.42-9.579,8.253-17.459,2.767-26.793
					c-6.6-0.453-10.131-6.142-17.274-4.605c-0.524-0.821-0.889-1.625-1.051-2.312c0.09-0.542,0.398-1.197,0.698-1.772
					c2.604-1.497,4.792-3.326,7.358-4.681c0.684-0.962,1.262-2.193,1.474-3.207c-0.098-0.458-0.315-0.865-0.542-1.261
					c-1.031-0.602-2.131-1.163-2.977-1.998c-1.615-0.281-3.14,0.596-4.783,0.405l0.025-0.241c-1.89-5.657,3.23-10.779,8.271-11.378
					c0.188-2.884,0.857-6.356-0.659-8.99c-2.699-1.612-4.576-3.66-8.05-3.848c-0.98-3.433-2.712-6.873-6.85-6.69
					c-0.091-0.038-0.191-0.077-0.281-0.115c-0.523-3.551-5.729-4.399-4.281-9.026c-4.493-1.841-7.837-4.872-9.831-9.047
					c-0.21,0.043-0.398,0.127-0.557,0.22c-0.059-2.169,2.044-3.787,2.528-5.795c1.114-0.31,2.464-0.334,3.42-0.031
					c2.881,1.179,3.838,4.943,6.873,5.799c2.52-1.745,5.628-0.74,8.252-1.656c1.227-3.602-0.1-7.899-0.417-11.694
					c4.196-5.925-1.153-10.921,0.498-16.521c-2.265-0.82-4.162-2.337-4.168-4.937c-0.201-0.057-0.402-0.113-0.604-0.169l0.095-0.322
					c0.465-1.408-0.063-3.009,0.925-4.257c1.146-0.761,2.786-1.95,4.087-0.792c-0.777,4.705,4.853,1.794,6.746,4.801
					c0.547-0.14,1.043-0.378,1.676-0.78c0.562-1.63,0.768-3.544,2.217-4.75l0.491-0.509c1.502,1.824,1.817,4.369,0.885,6.516
					c0.2,0.536,0.392,1.193,0.811,1.706c6.737-1.329,9.872,6.236,9.438,12.175c3.118,1.565,6.899,2.738,6.82,7.31
					c-3.923,6.081-1.81,12.464,1.406,18.418c4.225,0.815,4.037,4.879,4.846,8.216c0.365,0.293,0.73,0.597,1.076,0.921
					c10.748-1.931,12.307,12.134,23.203,9.561l0.01-0.01l0.499,0.501c1.824,4.759,9.345,6.976,6.495,13.248
					c1.984,2.445,6.673,0.652,7.054,5.196c4.515,0.79,9.6-1.23,13.798,0.916C535.383,174.537,534.133,179.66,535.863,184.13z"/>
				<path fill="#E6B781" d="M459.335,83.829l-0.499,0.009c-0.268-0.375-0.503-0.691-0.728-0.967l1.209-0.042
					c5.28-1.174,10.604-2.158,15.985-0.963c4.234,6.426,13.721,7.788,14.578,16.134c3.327,0.351,7.021-1.174,10.174,0.66
					c0.525,0.901,0.9,1.714,1.053,2.412c-0.377,1.327-0.482,2.699-0.85,4.016c0.1,0.539,0.432,1.183,0.762,1.757
					c3.193-1.507,3.201,2.854,5.06,3.911c6.648,3.783,9.064-8.342,14.736-12.793c6.054-0.387,10.45,3.316,15.393,6.259l0.009,0.5
					c-0.271,2.765-2.739,4.539-2.83,7.321c0.205,5.957,7.022,7.447,9.179,12.319l1.018,0.982c-0.024,0.881-0.378,1.767-0.702,3.243
					c-7.806,3.688-16.909-0.331-23.373,3.984c-6.021,4.007-5.927,12.126-11.651,17.569l-0.01,0.01
					c-10.896,2.573-12.455-11.492-23.203-9.561c-0.346-0.324-0.711-0.627-1.076-0.921c-0.809-3.336-0.621-7.4-4.846-8.216
					c-3.216-5.954-5.329-12.337-1.406-18.418c0.079-4.572-3.702-5.745-6.82-7.31c0.435-5.939-2.7-13.504-9.438-12.175
					c-0.419-0.513-0.61-1.169-0.811-1.706c0.933-2.147,0.617-4.692-0.885-6.516C459.354,84.829,459.345,84.329,459.335,83.829z"/>
				<path fill="#E6B781" d="M538.869,64.628c1.152,0.7,1.959,2.176,1.518,3.233c-3.136,2.516-3.719,6.327-7.507,8.174
					c1.361,5.727,5.505,12.645-0.608,17.033c0.729,3.938,5.248,6.608,4.571,10.751c-0.208,0.134-0.426,0.268-0.634,0.401
					c-4.942-2.943-9.339-6.646-15.393-6.259c-5.672,4.451-8.088,16.576-14.736,12.793c-1.858-1.057-1.866-5.418-5.06-3.911
					c-0.33-0.574-0.662-1.218-0.762-1.757c0.367-1.316,0.473-2.688,0.85-4.016c-0.152-0.697-0.527-1.511-1.053-2.412
					c-3.153-1.834-6.847-0.309-10.174-0.66c-0.857-8.346-10.344-9.708-14.578-16.134c-5.382-1.195-10.705-0.211-15.985,0.963
					l-1.209,0.042c-0.368-0.464-0.705-0.828-1.092-1.221c-0.128-2.688,2.935-4.873,5.399-5.176c-0.462-5.192,6.36-5.673,4.424-11.11
					c-0.762-0.097-1.532-0.133-2.303-0.139l2.794-0.37c5.6-1.77,12.292-2.248,16.061-7.436c5.078-0.17,6.783-4.961,5.864-9.425
					c0.037-0.181,0.073-0.361,0.11-0.532c-0.07-0.029-0.131-0.068-0.201-0.097l0.192-0.403c6.601-0.627,12.97-2.43,19.017-3.767
					c0.59,1.66,2.271,1.12,3.604,1.366c1.811,4.499-0.263,10.026,2.415,13.79l2.826-0.22c0.679,0.488,1.465,0.854,2.041,1.194
					c0.229,2.736,0.327,5.475,1.055,8.152C527.155,69.596,531.283,59.282,538.869,64.628z"/>
				<path fill="#E6B781" d="M489.367,47.462c-0.037,0.17-0.073,0.351-0.11,0.532c0.919,4.464-0.786,9.255-5.864,9.425
					c-3.769,5.188-10.461,5.666-16.061,7.436l-2.794,0.37c-2.491-0.016-5.025,0.309-7.481-0.008
					c-0.36-0.583-0.673-1.258-1.112-1.801c-8.097-1.437-13.511-9.522-23.043-6.783l-0.057-0.339
					c1.434-8.887,4.985-17.291,7.039-26.129c0.461-2.198,1.308-4.074,1.618-6.299c0.365-0.307,0.729-0.613,1.054-0.949
					c5.909-0.125,11.409-4.083,16.989-3.571c-0.931,9.018,7.452,13.02,10.285,20.521c6.017,3.724,12.889,4.343,19.336,7.499
					C489.236,47.394,489.296,47.433,489.367,47.462z"/>
				<path fill="#E6B781" d="M466.84,65.363c1.937,5.437-4.886,5.917-4.424,11.11c-2.465,0.304-5.527,2.488-5.399,5.176
					c0.387,0.394,0.724,0.757,1.092,1.221c0.225,0.276,0.46,0.592,0.728,0.967l0.499-0.009c0.01,0.5,0.019,1,0.027,1.5l-0.491,0.509
					c-1.449,1.206-1.655,3.12-2.217,4.75c-0.633,0.401-1.129,0.64-1.676,0.78c-1.894-3.007-7.523-0.097-6.746-4.801
					c-1.301-1.157-2.94,0.032-4.087,0.792c-0.988,1.248-0.46,2.849-0.925,4.257l-0.095,0.322
					c-8.854-2.394-18.235,0.393-26.386-3.523c-0.13,0.022-0.26,0.044-0.39,0.067l-0.119-0.558c2.578-5.787,5.753-10.624,7.87-16.972
					c2.798-4.67,5.115-9.392,7.765-13.98c0.158-0.053,0.327-0.116,0.486-0.168c0.189-0.063,0.368-0.117,0.548-0.17
					c9.532-2.739,14.946,5.347,23.043,6.783c0.439,0.542,0.752,1.217,1.112,1.801c2.456,0.316,4.99-0.008,7.481,0.008
					C465.308,65.23,466.079,65.267,466.84,65.363z"/>
				<path fill="#E6B781" d="M447.898,97.043c-1.651,5.6,3.698,10.596-0.498,16.521c0.317,3.795,1.644,8.092,0.417,11.694
					c-2.624,0.917-5.732-0.088-8.252,1.656c-3.035-0.856-3.992-4.62-6.873-5.799c-0.956-0.303-2.306-0.279-3.42,0.031
					c-0.484,2.009-2.587,3.626-2.528,5.795c-1.791,1.092-0.991,5.019-3.515,4.853c-0.979-6.773-8.522-1.79-11.02-6.116
					c1.495-4.807-1.571-9.084-0.114-13.771c-6.008,0.747-5.086-5.941-9.161-8.459c2.583-1.586,3.646-4.795,5.122-6.712
					c3.016-2.543,4.409-7.439,8.295-8.258c0.13-0.022,0.26-0.044,0.39-0.067c8.15,3.917,17.532,1.13,26.386,3.523
					c0.201,0.057,0.402,0.113,0.604,0.169C443.736,94.707,445.633,96.223,447.898,97.043z"/>
				<path fill="#E6B781" d="M397.77,106.652c0.888,3.814-5.595,4.259-2.893,8.322c-0.453,4.359-6.503,3.816-7.583,7.835
					c-0.396,0.227-0.792,0.454-1.26,0.552c-0.643-0.128-1.346-0.296-2.169-0.501c0.291-5.616-4.929-4.403-8.427-6.562l-0.147-1.508
					c8.038-0.772,14.207-5.982,21.438-8.771c0.161,0.057,0.332,0.104,0.493,0.161l0.705,0.268
					C397.878,106.52,397.829,106.581,397.77,106.652z"/>
				<path fill="#E6B781" d="M426.744,126.942c0.158-0.093,0.347-0.176,0.557-0.22c1.994,4.175,5.338,7.207,9.831,9.047
					c-1.448,4.626,3.758,5.475,4.281,9.026c-0.081-0.039-0.151-0.067-0.232-0.096c-0.158,0.083-0.327,0.166-0.485,0.249
					c-4.229,7.466-14.615,0.379-19.185,5.561c-4.646-0.268-10.584-1.273-14.392,2.845c-0.761,2.254-0.929,6.308-4.18,6.275
					l-0.767,0.224c-5.796-1.408-12.595-0.727-17.833-3.415c0.052-7.772-10.573-5.704-10.767-13.281
					c-0.662-0.128-1.256-0.328-1.8-0.579l0.086-0.191c-0.884-4.765-5.231-12.439-2.517-16.198c1.621-2.229,4.96-4.559,4.23-9.667
					c0.436-0.238,0.882-0.466,1.318-0.693c-0.006-0.33-0.012-0.67-0.018-1c0.14-0.012,0.28-0.025,0.419-0.038l0.147,1.508
					c3.499,2.159,8.718,0.946,8.427,6.562c0.824,0.206,1.527,0.373,2.169,0.501c0.468-0.098,0.864-0.325,1.26-0.552
					c1.079-4.02,7.13-3.477,7.583-7.835c-2.702-4.063,3.781-4.508,2.893-8.322c0.059-0.071,0.108-0.132,0.157-0.203
					c0.292-0.435,0.444-0.918,0.463-1.488c0.923-0.967,2.49-1.154,3.791-1.117c0.268-0.115,0.516-0.25,0.753-0.394
					c4.075,2.518,3.153,9.206,9.161,8.459c-1.457,4.687,1.609,8.963,0.114,13.771c2.497,4.326,10.04-0.658,11.02,6.116
					C425.752,131.961,424.953,128.034,426.744,126.942z"/>
				<path fill="#E6B781" d="M373.571,116.522c0.73,5.108-2.609,7.438-4.23,9.667c-2.714,3.758,1.633,11.433,2.517,16.198
					l-0.086,0.191c-0.141-0.047-0.282-0.115-0.413-0.183c-0.948,3.527-1.556,7.049-1.966,10.977c-3.92,3.4-7.603,6.686-12.452,8.502
					c-0.351,1.616,0.291,3.395,0.668,4.959c1.668,0.46,2.892,1.759,4.475,2.491c0.218,0.466,0.435,0.832,0.651,1.198
					c0.119,1.638,0.39,3.354,0.048,4.97c-4.253,2.686-6.252,7.292-5.024,12.261c-0.696,0.813-1.886,0.813-2.944,0.932
					c-2.784-2.471-5.972-2.875-9.137-0.868c-4.872-1.754-8.467-4.851-11.402-9.04c-2.625-0.254-5.19-0.539-7.805-0.782l0.009-0.05
					c1.263-4.913,1.861-10.125,3.738-14.818c-0.336-0.324-0.682-0.658-1.018-0.982c-2.26-2.791,2.161-5.589-0.081-8.51
					c8.086-7.634,19.684-14.621,22.292-26.068c7.746-2.587,15.43-6.934,21.37-11.51
					C373.045,116.211,373.308,116.367,373.571,116.522z"/>
				<path fill="#E6B781" d="M402.655,174.116c3.436,2.54,2.984,8.099,1.425,11.557c-1.942,0.464-4.01,0.001-5.974,0.386
					c-1.958,0.725-2.833,3.241-2.119,5.138c2.258,1,5.513,0.713,5.275,4.197c-0.055,0.831-0.591,2.211,0.102,3.479l0.5-0.009
					c-3.374,6.041-11.548,4.145-14.833,10.114c-2.985,0.863-6.981,0.574-7.722,4.478c-1.556,0.808-3.406,0.811-5.131,1.101
					c-0.667,1.302-1.173,2.651-1.739,4.051c-0.554,0.33-1.198,0.671-1.736,0.771c-7.188-4.354-14.063,2.199-21.488,2.021
					c-0.416-0.303-0.821-0.605-0.949-1.083c0.036-0.771,0.402-1.567,0.201-2.764c-0.385-0.293-0.761-0.597-1.097-0.921
					c-2.051-0.594-4.364-0.203-6.48,0.045c-7.324,8.311-23.147,8.281-31.508,2.658c-0.118,0.132-0.226,0.274-0.333,0.416
					l-0.167-0.407c0.86-4.506-3.183-8.615-1.397-12.807l1.982-1.035c-0.441-1.763-0.929-3.334-1.808-4.929
					c4.208-8.646,7.732-19.75,18.323-22.618c0.16,0.018,0.331,0.034,0.491,0.042c2.615,0.244,5.18,0.528,7.805,0.782
					c2.935,4.188,6.53,7.285,11.402,9.04c3.165-2.006,6.353-1.603,9.137,0.868c1.058-0.119,2.248-0.12,2.944-0.932
					c-1.228-4.969,0.771-9.575,5.024-12.261c0.341-1.616,0.071-3.332-0.048-4.97c-0.216-0.366-0.433-0.732-0.651-1.198
					c-1.583-0.732-2.807-2.031-4.475-2.491c-0.377-1.564-1.019-3.343-0.668-4.959c4.849-1.816,8.531-5.102,12.452-8.502
					c0.411-3.928,1.019-7.449,1.966-10.977c0.131,0.068,0.272,0.135,0.413,0.183c0.544,0.25,1.138,0.45,1.8,0.579
					c0.194,7.578,10.819,5.509,10.767,13.281c5.238,2.688,12.037,2.007,17.833,3.415C403.49,164.76,401.302,169.419,402.655,174.116
					z"/>
				<path fill="#E6B781" d="M471.051,255.818c-0.018,0.13-0.045,0.251-0.073,0.372c-1.494,7.138-10.276,8.203-10.089,15.421
					c-3.178,0.146-5.436,1.966-4.905,5.397c-0.411,0.468-0.833,0.935-1.348,1.274c-1.138,0.09-2.478,0.124-3.633-0.726
					c-5.419-5.515-15.297,0.311-22.782-1.047l0.019-0.1c-2.669-6.684,0.531-10.651,0.41-15.82c-0.1-3.909-0.518-5.502-2.088-9.425
					c-1.047-2.632-2.541-7.386-3.141-7.956c-8.148-7.747-9.082,6.752-15.909,0.211c-0.841-0.055-1.751-0.069-2.639,0.117
					c-0.606,0.731-1.275,1.393-1.893,2.104c-0.763,2.084-0.773,4.354-1.416,6.496c-0.354,0.316-0.709,0.623-1.033,0.968
					c-2.234,0.92-5.036,1.39-7.164-0.133c-0.723-1.858-1.731-3.44-2.931-5.109c-0.434-0.222-0.878-0.444-1.489-0.483
					c-0.537-0.411-1.095-0.831-1.768-0.979c-0.378,0.117-0.755,0.244-1.242,0.472c-0.283,0.385-0.576,0.77-0.911,1.096
					c-0.773,2.634-0.624,5.432-0.845,8.176c-0.561,0.53-1.595,0.858-2.312,1.041c-3.5-1.618-6.237,0.811-8.019,3.563
					c-0.498,0.129-0.995,0.268-1.433,0.385c-0.662-0.108-1.355-0.276-2.238-0.44c-1.497-1.523-2.622-3.454-4.608-4.369
					c-1.157-0.379-3.105-0.285-4.056,0.292c-0.237,1.314-0.181,2.744-1.122,3.831c-4.704,1.523-9.148-4.869-13.35-1.004
					c-0.111,0.502-0.223,0.994-0.325,1.436c0.125,1.398,1.715,1.98,1.731,3.44c-4.863,3.847,0.818,8.376,1.09,12.442
					c-3.822,2.188-8.811,0.596-12.996,2.05c-2.609,2.867-3.506,6.453-4.631,10.144c-0.529,0.089-1.208,0.142-1.751-0.049
					c-0.718-1.567-1.396-3.196-2.353-4.669c-0.848-0.445-2.03-0.584-3.316-0.352c-5.5,4.608-11.053,3.346-16.83,2.418
					c-1.14,2.291-0.271,5.565-3.693,6.046c-1.521-0.013-2.68-1.643-4.227-0.925c-3.536,5.354-9.613-1.2-14.586,0.348
					c-0.088,0.102-0.166,0.203-0.235,0.294l-0.265-0.285c-0.042-0.12-0.084-0.249-0.127-0.368
					c4.093-6.104,10.088-8.12,12.468-14.913c0.095-0.262,1.387-0.194,1.42-0.585c2.089-9.648,14.826-13.365,13.851-24.959l1-0.018
					c1.303-7.774,2.396-20.556-7.67-21.418c-0.291-0.595-0.866-1.995-0.456-3.152c1.978-1.835,2.321-4.502,3.903-6.62
					c0.107-0.142,0.215-0.284,0.333-0.416c8.36,5.623,24.184,5.653,31.508-2.658c2.116-0.248,4.429-0.639,6.48-0.045
					c0.336,0.324,0.711,0.627,1.097,0.921c0.201,1.196-0.165,1.993-0.201,2.764c0.128,0.478,0.534,0.781,0.949,1.083
					c7.424,0.179,14.299-6.374,21.488-2.021c0.538-0.1,1.182-0.441,1.736-0.771c0.565-1.4,1.072-2.75,1.739-4.051
					c1.725-0.291,3.575-0.293,5.131-1.101c0.741-3.904,4.737-3.614,7.722-4.478c3.285-5.969,11.46-4.073,14.833-10.114
					c4.354,0.223,7.837,5.942,12.306,3.013c1.354-1.444-0.168-3.828,1.611-4.989c3.845,1.922,5.327-2.485,7.747-3.648
					c2.906-1.381,6.705-0.879,9.339-4.096l0.833,0.155c6.498-2.396,13.774-6.635,15.018-13.268c0.08,0.019,0.16,0.027,0.24,0.026
					c1.644,0.191,3.168-0.686,4.783-0.405c0.846,0.835,1.945,1.396,2.977,1.998c0.227,0.396,0.444,0.802,0.542,1.261
					c-0.212,1.014-0.79,2.244-1.474,3.207c-2.566,1.355-4.754,3.185-7.358,4.681c-0.3,0.575-0.608,1.231-0.698,1.772
					c0.162,0.687,0.526,1.491,1.051,2.312c7.144-1.537,10.675,4.152,17.274,4.605c5.486,9.334-5.187,17.215-2.767,26.793
					c0.438,3.233,3.812,5.104,4.4,8.423C466.639,239.324,468.64,247.85,471.051,255.818z"/>
				<path fill="#E6B781" d="M428.65,260.59c0.121,5.168-3.079,9.136-0.41,15.82c-4.758-2.636-9.179-0.398-12.152,0.555
					c-5.351,1.725-13.006-0.78-17.611,0.691c-3.719,1.196-5.249,3.503-8.945,3.159c-10.771,4.581-17.61,15.954-29.616,18.587
					c-0.638,2.352-2.884,3.731-4.473,5.5c-13.594-0.64-5.131,41.817-7.818,50.446c-1.074,20.712-0.393,41.644-1.678,62.3
					c-39.834,0.095-79.997-3.615-119.786-2.641c-4.523-4.11-9.955,0.376-14.96,0.104c-0.259-3.876-2.63-7.324-3.111-10.746
					c-1.386-9.938,1.524-13.329,6.087-20.581c8.19-13.047,11.157-28.513,23.476-38.271c3.195-0.897,6.437-0.824,9.642-0.551
					c0.881-0.506,1.009-1.729,0.765-2.564c-5.322-4.046-6.933-10.849-10.476-16.607c17.836-5.437,27.19-26.195,45.716-30.583
					c0.503-0.979,0.52-1.699,1.625-3.139c0.069-0.091,0.147-0.193,0.235-0.294c4.974-1.548,11.05,5.005,14.586-0.348
					c1.547-0.717,2.707,0.913,4.227,0.925c3.422-0.48,2.554-3.755,3.693-6.046c5.777,0.928,11.331,2.189,16.83-2.418
					c1.286-0.233,2.469-0.094,3.316,0.352c0.957,1.473,1.635,3.102,2.353,4.669c0.543,0.19,1.223,0.138,1.751,0.049
					c1.125-3.69,2.021-7.277,4.631-10.144c4.185-1.454,9.174,0.138,12.996-2.05c-0.272-4.066-5.953-8.596-1.09-12.442
					c-0.016-1.46-1.606-2.042-1.731-3.44c0.102-0.442,0.213-0.934,0.325-1.436c4.202-3.865,8.646,2.527,13.35,1.004
					c0.941-1.087,0.885-2.516,1.122-3.831c0.95-0.577,2.898-0.671,4.056-0.292c1.986,0.915,3.111,2.846,4.608,4.369
					c0.883,0.165,1.576,0.333,2.238,0.44c0.438-0.118,0.936-0.256,1.433-0.385c1.782-2.752,4.519-5.181,8.019-3.563
					c0.717-0.183,1.751-0.511,2.312-1.041c0.221-2.744,0.072-5.542,0.845-8.176c0.334-0.326,0.627-0.711,0.911-1.096
					c0.486-0.229,0.864-0.355,1.242-0.472c0.673,0.148,1.23,0.568,1.768,0.979c0.611,0.039,1.055,0.261,1.489,0.483
					c1.2,1.669,2.208,3.251,2.931,5.109c2.127,1.522,4.929,1.053,7.164,0.133c0.324-0.346,0.678-0.652,1.033-0.968
					c0.643-2.142,0.652-4.412,1.416-6.496c0.617-0.711,1.286-1.373,1.893-2.104c0.888-0.186,1.798-0.171,2.639-0.117
					c6.827,6.541,7.761-7.958,15.909-0.211c0.6,0.569,2.094,5.324,3.141,7.956C428.132,255.088,428.55,256.681,428.65,260.59z"/>
				<path fill="#E6B781" d="M248.059,342.398c0.245,0.836,0.116,2.059-0.765,2.564c-3.206-0.273-6.447-0.347-9.642,0.551
					c-12.319,9.759-15.286,25.225-23.476,38.271c-4.563,7.252-7.473,10.644-6.087,20.581c0.481,3.422,2.852,6.87,3.111,10.746
					c5.005,0.271,10.437-4.215,14.96-0.104c-0.886,19.999-0.971,40.083-2.188,60.048c-5.638-0.391-14.39-1.006-17.514,0.53
					c-4.313,2.127-12.89-1.582-16.088-3.136c-11.813-5.712-24.143,5.107-33.494,0.083c-9.169-4.929-19.192-1.631-27.76-0.909
					c-4.026-3.119-7.064-5.836-12.108-7.677c0.552-3.251,1.817-6.403,4.125-8.795c0.995-6.498-0.247-13.377,2.165-19.531
					c4.13-1.713,2.924-6.013,4.514-9.411c1.898-4.074,4.705-7.685,6.123-11.78c1.417-4.105,0.945-6.487,2.795-11.051
					c2.758-2.39,5.705-3.752,9.124-4.953l0.929-4.017c8.179,0.415,12.964-7.771,20.843-8.51c6.68-6.279,6.721-16.402,11.827-22.854
					c1.352-4.414,2.189-9.69,5.83-13.045c1.684-6.561,7.287-12.131,12.382-16.372c9.912-1.096,16.839,1.492,24.724-2.828
					c3.081-1.694,10.097-4.81,15.194-5.01C241.126,331.55,242.737,338.353,248.059,342.398z"/>
				<path fill="#E6B781" d="M223.973,475.056c-0.08,13.573-0.325,27.44-1.235,40.979c-16.038-0.276-40.623,0.799-40.402,22.269
					c0.072,20.472,1.146,41.586,0.861,62.214c-49.323-1.407-98.771-6.553-148.113-7.3c-6.675,4.27-4.367,12.64-6.947,18.316
					c-0.401-0.063-0.838-0.476-1.276-0.897c0.032-4.411-1.536-8.204,0.302-12.287c0.433-0.958,2.142-1.599,2.435-2.563
					c1.852-6.154,2.081-13.539,5.64-18.163c0.978-1.268-0.565-3.11-0.134-4.198c2.318-5.752,7.531-10.175,9.331-16.397
					c8.247-0.246,9.751-9.055,16.243-11.83c-0.068-6.14-0.739-13.479,6.764-15.092c-0.1-2.248,2.664-4.878-0.293-6.365
					c0.639-2.882,3.767-4.738,6.016-8.748c1.145-2.031,1.374-4.896,2.435-6.515c3.165-4.866,9.918-7.566,9.795-13.936
					c-0.558-0.43-1.525-0.313-2.383-0.168c-0.937,2.997-4.614,3.763-5.912,6.727c-0.597,0.771-1.63,1.118-2.54,1.185
					c1.506-8.138,10.075-13.96,18.058-16.682c2.11-4.538,7.394-6.643,10.852-10.145c0.229-3.984,3.955-6.011,7.583-5.564
					c1.32-2.804,4.264-3.746,5.956-5.946c5.043,1.841,8.082,4.558,12.108,7.677c8.568-0.722,18.591-4.02,27.76,0.909
					c9.351,5.024,21.681-5.795,33.494-0.083c3.198,1.554,11.775,5.263,16.088,3.136C209.583,474.05,218.335,474.665,223.973,475.056
					z"/>
			</g>
			<g>
				<path fill="none" stroke="#F2E0CB" stroke-width="1.5" stroke-linecap="round" d="M182.336,538.303
					c0.072,20.472,1.146,41.586,0.861,62.214c-49.323-1.407-98.771-6.553-148.113-7.3c-6.675,4.27-4.367,12.64-6.947,18.316
					c-0.401-0.063-0.838-0.476-1.276-0.897c0.032-4.411-1.536-8.204,0.302-12.287c0.433-0.958,2.142-1.599,2.435-2.563
					c1.852-6.154,2.081-13.539,5.64-18.163c0.978-1.268-0.565-3.11-0.134-4.198c2.318-5.752,7.531-10.175,9.331-16.397
					c8.247-0.246,9.751-9.055,16.243-11.83c-0.068-6.14-0.739-13.479,6.764-15.092c-0.1-2.248,2.664-4.878-0.293-6.365
					c0.639-2.882,3.767-4.738,6.016-8.748c1.145-2.031,1.374-4.896,2.435-6.515c3.165-4.866,9.918-7.566,9.795-13.936
					c-0.558-0.43-1.525-0.313-2.383-0.168c-0.937,2.997-4.614,3.763-5.912,6.727c-0.597,0.771-1.63,1.118-2.54,1.185
					c1.506-8.138,10.075-13.96,18.058-16.682c2.11-4.538,7.394-6.643,10.852-10.145c0.229-3.984,3.955-6.011,7.583-5.564
					c1.32-2.804,4.264-3.746,5.956-5.946"/>
				<path fill="none" stroke="#F2E0CB" stroke-width="1.5" stroke-linecap="round" d="M117.01,463.947
					c5.043,1.841,8.082,4.558,12.108,7.677c8.568-0.722,18.591-4.02,27.76,0.909c9.351,5.024,21.681-5.795,33.494-0.083
					c3.198,1.554,11.775,5.263,16.088,3.136c3.124-1.536,11.876-0.921,17.514-0.53"/>
				<path fill="none" stroke="#F2E0CB" stroke-width="1.5" stroke-linecap="round" d="M182.336,538.303
					c-0.22-21.47,24.365-22.545,40.402-22.269c0.91-13.538,1.155-27.405,1.235-40.979"/>
				<path fill="none" stroke="#F2E0CB" stroke-width="1.5" stroke-linecap="round" d="M223.973,475.056
					c1.217-19.965,1.301-40.049,2.188-60.048c-4.523-4.11-9.955,0.376-14.96,0.104c-0.259-3.876-2.63-7.324-3.111-10.746
					c-1.386-9.938,1.524-13.329,6.087-20.581c8.19-13.047,11.157-28.513,23.476-38.271c3.195-0.897,6.437-0.824,9.642-0.551
					c0.881-0.506,1.009-1.729,0.765-2.564c-5.322-4.046-6.933-10.849-10.476-16.607c-5.097,0.2-12.113,3.315-15.194,5.01
					c-7.885,4.32-14.812,1.732-24.724,2.828c-5.096,4.241-10.698,9.812-12.382,16.372c-3.641,3.354-4.478,8.631-5.83,13.045
					c-5.106,6.451-5.147,16.574-11.827,22.854c-7.878,0.739-12.664,8.925-20.843,8.51l-0.929,4.017
					c-3.419,1.201-6.366,2.563-9.124,4.953c-1.85,4.563-1.377,6.945-2.795,11.051c-1.418,4.096-4.224,7.706-6.123,11.78
					c-1.59,3.398-0.384,7.698-4.514,9.411c-2.412,6.154-1.169,13.033-2.165,19.531c-2.308,2.392-3.573,5.544-4.125,8.795"/>
				<path fill="none" stroke="#F2E0CB" stroke-width="1.5" stroke-linecap="round" d="M237.583,325.791
					c17.836-5.437,27.19-26.195,45.716-30.583c0.503-0.979,0.52-1.699,1.625-3.139c0.069-0.091,0.147-0.193,0.235-0.294"/>
				<path fill="none" stroke="#F2E0CB" stroke-width="1.5" stroke-linecap="round" d="M285.159,291.774
					c4.974-1.548,11.05,5.005,14.586-0.348c1.547-0.717,2.707,0.913,4.227,0.925c3.422-0.48,2.554-3.755,3.693-6.046
					c5.777,0.928,11.331,2.189,16.83-2.418c1.286-0.233,2.469-0.094,3.316,0.352c0.957,1.473,1.635,3.102,2.353,4.669
					c0.543,0.19,1.223,0.138,1.751,0.049c1.125-3.69,2.021-7.277,4.631-10.144c4.185-1.454,9.174,0.138,12.996-2.05
					c-0.272-4.066-5.953-8.596-1.09-12.442c-0.016-1.46-1.606-2.042-1.731-3.44c0.102-0.442,0.213-0.934,0.325-1.436
					c4.202-3.865,8.646,2.527,13.35,1.004c0.941-1.087,0.885-2.516,1.122-3.831c0.95-0.577,2.898-0.671,4.056-0.292
					c1.986,0.915,3.111,2.846,4.608,4.369c0.883,0.165,1.576,0.333,2.238,0.44c0.438-0.118,0.936-0.256,1.433-0.385
					c1.782-2.752,4.519-5.181,8.019-3.563c0.717-0.183,1.751-0.511,2.312-1.041c0.221-2.744,0.072-5.542,0.845-8.176
					c0.334-0.326,0.627-0.711,0.911-1.096c0.486-0.229,0.864-0.355,1.242-0.472c0.673,0.148,1.23,0.568,1.768,0.979
					c0.611,0.039,1.055,0.261,1.489,0.483c1.2,1.669,2.208,3.251,2.931,5.109c2.127,1.522,4.929,1.053,7.164,0.133
					c0.324-0.346,0.678-0.652,1.033-0.968c0.643-2.142,0.652-4.412,1.416-6.496c0.617-0.711,1.286-1.373,1.893-2.104
					c0.888-0.186,1.798-0.171,2.639-0.117c6.827,6.541,7.761-7.958,15.909-0.211c0.6,0.569,2.094,5.324,3.141,7.956
					c1.57,3.923,1.988,5.516,2.088,9.425c0.121,5.168-3.079,9.136-0.41,15.82"/>
				<path fill="none" stroke="#F2E0CB" stroke-width="1.5" stroke-linecap="round" d="M226.161,415.008
					c39.789-0.975,79.951,2.735,119.786,2.641c1.285-20.656,0.604-41.588,1.678-62.3"/>
				<path fill="none" stroke="#F2E0CB" stroke-width="1.5" stroke-linecap="round" d="M347.624,355.349
					c2.688-8.629-5.775-51.086,7.818-50.446c1.589-1.769,3.835-3.148,4.473-5.5c12.005-2.633,18.845-14.006,29.616-18.587
					c3.697,0.344,5.226-1.963,8.945-3.159c4.605-1.472,12.26,1.033,17.611-0.691c2.974-0.953,7.395-3.191,12.152-0.555"/>
				<path fill="none" stroke="#F2E0CB" stroke-width="1.5" stroke-linecap="round" d="M284.659,291.783
					c-0.042-0.12-0.084-0.249-0.127-0.368c4.093-6.104,10.088-8.12,12.468-14.913c0.095-0.262,1.387-0.194,1.42-0.585
					c2.089-9.648,14.826-13.365,13.851-24.959"/>
				<path fill="none" stroke="#F2E0CB" stroke-width="1.5" stroke-linecap="round" d="M313.271,250.94
					c1.303-7.774,2.396-20.556-7.67-21.418c-0.291-0.595-0.866-1.995-0.456-3.152c1.978-1.835,2.321-4.502,3.903-6.62
					c0.107-0.142,0.215-0.284,0.333-0.416"/>
				<path fill="none" stroke="#F2E0CB" stroke-width="1.5" stroke-linecap="round" d="M448.716,176.031
					c-1.243,6.633-8.52,10.873-15.018,13.268"/>
				<path fill="none" stroke="#F2E0CB" stroke-width="1.5" stroke-linecap="round" d="M463.287,222.281
					c-2.42-9.579,8.253-17.459,2.767-26.793c-6.6-0.453-10.131-6.142-17.274-4.605c-0.524-0.821-0.889-1.625-1.051-2.312
					c0.09-0.542,0.398-1.197,0.698-1.772c2.604-1.497,4.792-3.326,7.358-4.681c0.684-0.962,1.262-2.193,1.474-3.207
					c-0.098-0.458-0.315-0.865-0.542-1.261c-1.031-0.602-2.131-1.163-2.977-1.998c-1.615-0.281-3.14,0.596-4.783,0.405
					c-0.08,0.001-0.16-0.007-0.24-0.026"/>
				<path fill="none" stroke="#F2E0CB" stroke-width="1.5" stroke-linecap="round" d="M427.74,276.418
					c0.16,0.037,0.321,0.064,0.481,0.091c7.485,1.358,17.363-4.468,22.782,1.047c1.155,0.85,2.495,0.816,3.633,0.726
					c0.515-0.339,0.937-0.807,1.348-1.274c-0.53-3.431,1.728-5.251,4.905-5.397c-0.188-7.218,8.595-8.283,10.089-15.421
					c0.028-0.121,0.056-0.241,0.073-0.372"/>
				<path fill="none" stroke="#F2E0CB" stroke-width="1.5" stroke-linecap="round" d="M471.051,255.818
					c-2.411-7.968-4.412-16.494-3.364-25.114"/>
				<path fill="none" stroke="#F2E0CB" stroke-width="1.5" stroke-linecap="round" d="M467.687,230.704
					c-0.589-3.32-3.963-5.19-4.4-8.423"/>
				<path fill="none" stroke="#F2E0CB" stroke-width="1.5" stroke-linecap="round" d="M309.381,219.334
					c8.36,5.623,24.184,5.653,31.508-2.658c2.116-0.248,4.429-0.639,6.48-0.045c0.336,0.324,0.711,0.627,1.097,0.921
					c0.201,1.196-0.165,1.993-0.201,2.764c0.128,0.478,0.534,0.781,0.949,1.083c7.424,0.179,14.299-6.374,21.488-2.021
					c0.538-0.1,1.182-0.441,1.736-0.771c0.565-1.4,1.072-2.75,1.739-4.051c1.725-0.291,3.575-0.293,5.131-1.101
					c0.741-3.904,4.737-3.614,7.722-4.478c3.285-5.969,11.46-4.073,14.833-10.114"/>
				<path fill="none" stroke="#F2E0CB" stroke-width="1.5" stroke-linecap="round" d="M401.863,198.864
					c4.354,0.223,7.837,5.942,12.306,3.013c1.354-1.444-0.168-3.828,1.611-4.989c3.845,1.922,5.327-2.485,7.747-3.648
					c2.906-1.381,6.705-0.879,9.339-4.096"/>
				<path fill="none" stroke="#F2E0CB" stroke-width="1.5" stroke-linecap="round" d="M401.363,198.873
					c-0.692-1.268-0.157-2.648-0.102-3.479c0.238-3.484-3.017-3.197-5.275-4.197c-0.714-1.897,0.162-4.414,2.119-5.138
					c1.964-0.385,4.032,0.079,5.974-0.386c1.56-3.458,2.011-9.017-1.425-11.557c-1.353-4.697,0.835-9.356-0.482-14.264
					c-5.796-1.408-12.595-0.727-17.833-3.415c0.052-7.772-10.573-5.704-10.767-13.281c-0.662-0.128-1.256-0.328-1.8-0.579
					c-0.141-0.047-0.282-0.115-0.413-0.183c-0.948,3.527-1.556,7.049-1.966,10.977c-3.92,3.4-7.603,6.686-12.452,8.502
					c-0.351,1.616,0.291,3.395,0.668,4.959c1.668,0.46,2.892,1.759,4.475,2.491c0.218,0.466,0.435,0.832,0.651,1.198
					c0.119,1.638,0.39,3.354,0.048,4.97c-4.253,2.686-6.252,7.292-5.024,12.261c-0.696,0.813-1.886,0.813-2.944,0.932
					c-2.784-2.471-5.972-2.875-9.137-0.868c-4.872-1.754-8.467-4.851-11.402-9.04c-2.625-0.254-5.19-0.539-7.805-0.782
					c-0.16-0.007-0.331-0.024-0.491-0.042c-10.591,2.868-14.115,13.972-18.323,22.618c0.878,1.595,1.366,3.166,1.808,4.929
					l-1.982,1.035c-1.786,4.192,2.257,8.301,1.397,12.807"/>
				<path fill="none" stroke="#F2E0CB" stroke-width="1.5" stroke-linecap="round" d="M326.481,177.945
					c1.263-4.913,1.861-10.125,3.738-14.818"/>
				<path fill="none" stroke="#F2E0CB" stroke-width="1.5" stroke-linecap="round" d="M330.219,163.126
					c-0.336-0.324-0.682-0.658-1.018-0.982"/>
				<path fill="none" stroke="#F2E0CB" stroke-width="1.5" stroke-linecap="round" d="M371.858,142.386
					c-0.884-4.765-5.231-12.439-2.517-16.198c1.621-2.229,4.96-4.559,4.23-9.667"/>
				<path fill="none" stroke="#F2E0CB" stroke-width="1.5" stroke-linecap="round" d="M373.571,116.522
					c-0.263-0.155-0.526-0.311-0.789-0.466c-5.94,4.576-13.624,8.923-21.37,11.51c-2.608,11.448-14.206,18.434-22.292,26.068
					c2.242,2.921-2.179,5.72,0.081,8.51"/>
				<path fill="none" stroke="#F2E0CB" stroke-width="1.5" stroke-linecap="round" d="M402.939,159.629
					c3.251,0.033,3.419-4.021,4.18-6.275c3.808-4.118,9.746-3.113,14.392-2.845c4.569-5.182,14.956,1.906,19.185-5.561
					c0.158-0.083,0.327-0.166,0.485-0.249"/>
				<path fill="none" stroke="#F2E0CB" stroke-width="1.5" stroke-linecap="round" d="M448.982,175.816
					c-1.89-5.657,3.23-10.779,8.271-11.378c0.188-2.884,0.857-6.356-0.659-8.99c-2.699-1.612-4.576-3.66-8.05-3.848
					c-0.98-3.433-2.712-6.873-6.85-6.69c-0.091-0.038-0.191-0.077-0.281-0.115c-0.081-0.039-0.151-0.067-0.232-0.096"/>
				<path fill="none" stroke="#F2E0CB" stroke-width="1.5" stroke-linecap="round" d="M441.462,145.385
					c-0.004-0.21-0.017-0.399-0.05-0.589c-0.523-3.551-5.729-4.399-4.281-9.026c-4.493-1.841-7.837-4.872-9.831-9.047"/>
				<path fill="none" stroke="#F2E0CB" stroke-width="1.5" stroke-linecap="round" d="M427.3,126.723
					c-0.21,0.043-0.398,0.127-0.557,0.22c-1.791,1.092-0.991,5.019-3.515,4.853c-0.979-6.773-8.522-1.79-11.02-6.116
					c1.495-4.807-1.571-9.084-0.114-13.771c-6.008,0.747-5.086-5.941-9.161-8.459c-0.071-0.049-0.142-0.098-0.222-0.136"/>
				<path fill="none" stroke="#F2E0CB" stroke-width="1.5" stroke-linecap="round" d="M375.438,116.299
					c3.499,2.159,8.718,0.946,8.427,6.562c0.824,0.206,1.527,0.373,2.169,0.501c0.468-0.098,0.864-0.325,1.26-0.552
					c1.079-4.02,7.13-3.477,7.583-7.835c-2.702-4.063,3.781-4.508,2.893-8.322"/>
				<path fill="none" stroke="#F2E0CB" stroke-width="1.5" stroke-linecap="round" d="M373.571,116.522
					c0.436-0.238,0.882-0.466,1.318-0.693"/>
				<path fill="none" stroke="#F2E0CB" stroke-width="1.5" stroke-linecap="round" d="M374.889,115.829
					c-0.006-0.33-0.012-0.67-0.018-1"/>
				<path fill="none" stroke="#F2E0CB" stroke-width="1.5" stroke-linecap="round" d="M397.222,106.182
					c-0.161-0.057-0.332-0.104-0.493-0.161c-7.232,2.789-13.401,7.999-21.438,8.771c-0.14,0.013-0.279,0.025-0.419,0.038"/>
				<path fill="none" stroke="#F2E0CB" stroke-width="1.5" stroke-linecap="round" d="M402.181,103.844
					c0.268-0.115,0.516-0.25,0.753-0.394c2.583-1.586,3.646-4.795,5.122-6.712"/>
				<path fill="none" stroke="#F2E0CB" stroke-width="1.5" stroke-linecap="round" d="M443.73,92.106
					c-0.201-0.057-0.402-0.113-0.604-0.169c-8.854-2.394-18.235,0.393-26.386-3.523"/>
				<path fill="none" stroke="#F2E0CB" stroke-width="1.5" stroke-linecap="round" d="M416.741,88.414
					c-0.13,0.022-0.26,0.044-0.39,0.067c-3.886,0.819-5.279,5.714-8.295,8.258"/>
				<path fill="none" stroke="#F2E0CB" stroke-width="1.5" stroke-linecap="round" d="M426.769,127.242
					c-0.012-0.1-0.023-0.2-0.025-0.3c-0.059-2.169,2.044-3.787,2.528-5.795c1.114-0.31,2.464-0.334,3.42-0.031
					c2.881,1.179,3.838,4.943,6.873,5.799c2.52-1.745,5.628-0.74,8.252-1.656c1.227-3.602-0.1-7.899-0.417-11.694
					c4.196-5.925-1.153-10.921,0.498-16.521c-2.265-0.82-4.162-2.337-4.168-4.937"/>
				<path fill="none" stroke="#F2E0CB" stroke-width="1.5" stroke-linecap="round" d="M402.181,103.844
					c-1.301-0.037-2.868,0.15-3.791,1.117c-0.02,0.57-0.171,1.053-0.463,1.488c-0.049,0.071-0.098,0.132-0.157,0.203
					c-0.146,0.183-0.324,0.355-0.531,0.529"/>
				<path fill="none" stroke="#F2E0CB" stroke-width="1.5" stroke-linecap="round" d="M416.232,87.922
					c2.578-5.787,5.753-10.624,7.87-16.972"/>
				<path fill="none" stroke="#F2E0CB" stroke-width="1.5" stroke-linecap="round" d="M458.872,85.837
					c-1.449,1.206-1.655,3.12-2.217,4.75c-0.633,0.401-1.129,0.64-1.676,0.78c-1.894-3.007-7.523-0.097-6.746-4.801
					c-1.301-1.157-2.94,0.032-4.087,0.792c-0.988,1.248-0.46,2.849-0.925,4.257"/>
				<path fill="none" stroke="#F2E0CB" stroke-width="1.5" stroke-linecap="round" d="M458.836,83.838
					c-0.268-0.375-0.503-0.691-0.728-0.967c-0.368-0.464-0.705-0.828-1.092-1.221c-0.128-2.688,2.935-4.873,5.399-5.176
					c-0.462-5.192,6.36-5.673,4.424-11.11"/>
				<path fill="none" stroke="#F2E0CB" stroke-width="1.5" stroke-linecap="round" d="M466.84,65.363
					c-0.762-0.097-1.532-0.133-2.303-0.139c-2.491-0.016-5.025,0.309-7.481-0.008c-0.36-0.583-0.673-1.258-1.112-1.801
					c-8.097-1.437-13.511-9.522-23.043-6.783c-0.18,0.053-0.358,0.106-0.548,0.17"/>
				<path fill="none" stroke="#F2E0CB" stroke-width="1.5" stroke-linecap="round" d="M432.353,56.802
					c-0.159,0.053-0.328,0.116-0.486,0.168c-2.649,4.588-4.967,9.31-7.765,13.98"/>
				<path fill="none" stroke="#F2E0CB" stroke-width="1.5" stroke-linecap="round" d="M432.844,56.293
					c1.434-8.887,4.985-17.291,7.039-26.129"/>
				<path fill="none" stroke="#F2E0CB" stroke-width="1.5" stroke-linecap="round" d="M467.332,64.854
					c5.6-1.77,12.292-2.248,16.061-7.436c5.078-0.17,6.783-4.961,5.864-9.425c0.037-0.181,0.073-0.361,0.11-0.532"/>
				<path fill="none" stroke="#F2E0CB" stroke-width="1.5" stroke-linecap="round" d="M489.367,47.462
					c-0.07-0.029-0.131-0.068-0.201-0.097c-6.447-3.156-13.319-3.775-19.336-7.499c-2.833-7.501-11.216-11.503-10.285-20.521
					c-5.58-0.511-11.08,3.447-16.989,3.571c-0.324,0.335-0.688,0.642-1.054,0.949c-0.311,2.226-1.157,4.101-1.618,6.299"/>
				<path fill="none" stroke="#F2E0CB" stroke-width="1.5" stroke-linecap="round" d="M459.318,82.829
					c5.28-1.174,10.604-2.158,15.985-0.963c4.234,6.426,13.721,7.788,14.578,16.134c3.327,0.351,7.021-1.174,10.174,0.66
					c0.525,0.901,0.9,1.714,1.053,2.412c-0.377,1.327-0.482,2.699-0.85,4.016c0.1,0.539,0.432,1.183,0.762,1.757
					c3.193-1.507,3.201,2.854,5.06,3.911c6.648,3.783,9.064-8.342,14.736-12.793c6.054-0.387,10.45,3.316,15.393,6.259
					c0.208-0.134,0.426-0.268,0.634-0.401c0.677-4.143-3.842-6.813-4.571-10.751c6.113-4.389,1.97-11.307,0.608-17.033
					c3.788-1.847,4.371-5.658,7.507-8.174c0.441-1.058-0.365-2.534-1.518-3.233c-7.586-5.347-11.714,4.968-18.553,2.849
					c-0.728-2.677-0.826-5.416-1.055-8.152c-0.576-0.34-1.362-0.706-2.041-1.194l-2.826,0.22c-2.678-3.763-0.604-9.291-2.415-13.79
					c-1.334-0.247-3.015,0.293-3.604-1.366c-6.047,1.337-12.416,3.14-19.017,3.767"/>
				<path fill="none" stroke="#F2E0CB" stroke-width="1.5" stroke-linecap="round" d="M507.847,150.151l0.01-0.01
					c5.725-5.442,5.631-13.562,11.651-17.569c6.464-4.315,15.567-0.296,23.373-3.984c0.324-1.476,0.678-2.362,0.702-3.243"/>
				<path fill="none" stroke="#F2E0CB" stroke-width="1.5" stroke-linecap="round" d="M542.566,124.362
					c-2.156-4.873-8.974-6.362-9.179-12.319c0.091-2.782,2.56-4.556,2.83-7.321"/>
				<path fill="none" stroke="#F2E0CB" stroke-width="1.5" stroke-linecap="round" d="M507.847,150.151
					c-10.896,2.573-12.455-11.492-23.203-9.561c-0.346-0.324-0.711-0.627-1.076-0.921c-0.809-3.336-0.621-7.4-4.846-8.216
					c-3.216-5.954-5.329-12.337-1.406-18.418c0.079-4.572-3.702-5.745-6.82-7.31c0.435-5.939-2.7-13.504-9.438-12.175
					c-0.419-0.513-0.61-1.169-0.811-1.706c0.933-2.147,0.617-4.692-0.885-6.516"/>
				<path fill="none" stroke="#F2E0CB" stroke-width="1.5" stroke-linecap="round" d="M459.363,85.329c-0.009-0.5-0.018-1-0.027-1.5
					c-0.003-0.17-0.005-0.33-0.009-0.5"/>
				<path fill="none" stroke="#F2E0CB" stroke-width="1.5" stroke-linecap="round" d="M522.121,198.236
					c0.002-2.71-1.425-5.906,0.864-8.257c4.206-1.915,9.847-1.955,13.326-4.827"/>
				<path fill="none" stroke="#F2E0CB" stroke-width="1.5" stroke-linecap="round" d="M536.311,185.152
					c-0.166-0.337-0.322-0.674-0.448-1.022c-1.729-4.47-0.479-9.593-0.16-14.129c-4.198-2.146-9.283-0.126-13.798-0.916
					c-0.381-4.544-5.069-2.751-7.054-5.196c2.85-6.271-4.671-8.489-6.495-13.248"/>
				<path fill="none" stroke="#F2E0CB" stroke-width="1.5" stroke-linecap="round" d="M484.261,248.914
					c5.363-4.425,16.941-13.092,25.39-17.752c3.973-2.181,6.241-2.271,9.463-5.588c2.74-2.819,3.148-6.897,6.859-9.123
					c0.11-0.582,0.14-1.183,0.158-1.803c-0.168-0.478-0.465-0.832-0.781-1.187c-0.07-0.599-0.288-1.055-0.516-1.491
					c-1.377-2.596-4.097-1.998-6.465-2.466c-0.148-2.728-0.314-5.885,0.82-8.456c1.197-0.161,2.374-0.342,3.015-0.863
					c0.113-0.392,0.105-0.872,0.086-1.362c-0.063-0.189-0.116-0.388-0.17-0.587"/>
				<path fill="none" stroke="#F2E0CB" stroke-width="1.5" stroke-linecap="round" d="M471.56,256.31
					c3.103-4.436,9.244-3.244,12.701-7.396"/>
				<path fill="none" stroke="#F2E0CB" stroke-width="1.5" stroke-linecap="round" d="M589.55,123.03
					c-2.545-4.215-2.289-11.761-4.104-17.13c-1.014-3.022-4.311-3.944-0.501-6.812c1.41-12.437-2.088-24.157-6.021-34.989
					c0.866-1.345,1.296-2.523,1.479-3.417c-7.186-3.093-12.19-8.396-17.191-14.068c-7.505-1.337-16.943,3.34-22.107-4.74"/>
				<path fill="none" stroke="#F2E0CB" stroke-width="1.5" stroke-linecap="round" d="M535.793,184.162
					c0.02-0.01,0.05-0.021,0.069-0.031c3.748-1.877,8.142-0.554,11.935-2.142c0.937-0.767,1.547-1.878,1.682-2.74
					c-0.367-3.214-0.863-6.406-1.938-9.457c11.601-1.156,23.186-4.381,35.25-3.675c8.277-4.197,15.571,4.435,23.748,0.81
					c0.516-4.79-3.501-11.31,2.188-14.251c-0.114-1.358-0.388-2.684-0.87-3.955c-9.053-5.711-17.979-12.804-17.29-24.708"/>
				<path fill="none" stroke="#F2E0CB" stroke-width="1.5" stroke-linecap="round" d="M541.106,41.875
					c-1.637-2.641,0.798-6.915-1.629-8.973c-0.576,0.24-1.1,1.16-1.779,1.752c-0.27,5.696-6.403,7.785-10.017,10.419
					c-5.307,0.274-12.061-7.798-15.702-0.512"/>
			</g>
		</g>
	</g>
</g>
<g id="Layer_6">
	<text transform="matrix(1 0 0 1 98.0117 553.9619)" fill="#6E573D" font-family="'MyriadPro-Regular'" font-size="60">11</text>
	<text transform="matrix(1 0 0 1 161.4912 439.9785)" fill="#6E573D" font-family="'MyriadPro-Regular'" font-size="48">7</text>
	<text transform="matrix(1 0 0 1 277.4858 376.4814)" fill="#6E573D" font-family="'MyriadPro-Regular'" font-size="60">6</text>
	<text transform="matrix(1 0 0 1 409.981 236.9873)" fill="#6E573D" font-family="'MyriadPro-Regular'" font-size="48">13</text>
	<text transform="matrix(1 0 0 1 370.4814 200.4897)" fill="#6E573D" font-family="'MyriadPro-Regular'" font-size="32">8</text>
	<text transform="matrix(1 0 0 1 336.9829 168.4927)" fill="#6E573D" font-family="'MyriadPro-Regular'" font-size="32">2</text>
	<text transform="matrix(1 0 0 1 367.981 108.9946)" fill="#6E573D" font-family="'MyriadPro-Regular'" font-size="48">5</text>
	<text transform="matrix(1 0 0 1 394.4805 147.4927)" fill="#6E573D" font-family="'MyriadPro-Regular'" font-size="32">1</text>
	<text transform="matrix(1 0 0 1 409.98 182.4902)" fill="#6E573D" font-family="'MyriadPro-Regular'" font-size="32">14</text>
	<text transform="matrix(1 0 0 1 473.9771 201.4902)" fill="#6E573D" font-family="'MyriadPro-Regular'" font-size="60">9</text>
	<text transform="matrix(1 0 0 1 410.8198 117.2593)" fill="#6E573D" font-family="'MyriadPro-Regular'" font-size="32">12</text>
	<text transform="matrix(1 0 0 1 432.6021 86.4497)" fill="#6E573D" font-family="'MyriadPro-Regular'" font-size="32">4</text>
	<text transform="matrix(1 0 0 1 435.478 51.498)" fill="#6E573D" font-family="'MyriadPro-Regular'" font-size="32">15</text>
	<text transform="matrix(1 0 0 1 482.9761 84.9971)" fill="#6E573D" font-family="'MyriadPro-Regular'" font-size="32">16</text>
	<text transform="matrix(1 0 0 1 541.4731 155.9922)" fill="#6E573D" font-family="'MyriadPro-Regular'" font-size="48">10</text>
	<text transform="matrix(1 0 0 1 491.9751 137.4932)" fill="#6E573D" font-family="'MyriadPro-Regular'" font-size="32">3</text>
</g>
</svg>
